<svg xmlns="http://www.w3.org/2000/svg" version="1.1" xmlns:xlink="http://www.w3.org/1999/xlink" xmlns:svgjs="http://svgjs.dev/svgjs" width="1500" height="246" viewBox="0 0 1500 246"><g transform="matrix(1,0,0,1,-0.9090909090909918,0.9127223616783198)"><svg viewBox="0 0 396 65" data-background-color="#09090a" preserveAspectRatio="xMidYMid meet" height="246" width="1500" xmlns="http://www.w3.org/2000/svg" xmlns:xlink="http://www.w3.org/1999/xlink"><g id="tight-bounds" transform="matrix(1,0,0,1,0.2400000000000091,-0.24116647767922927)"><svg viewBox="0 0 395.52 65.48233295535846" height="65.48233295535846" width="395.52"><g><svg viewBox="0 0 506.6884563217262 83.8873943201251" height="65.48233295535846" width="395.52"><g transform="matrix(1,0,0,1,0,7.842575873486716)"><svg viewBox="0 0 395.52 68.20224257315166" height="68.20224257315166" width="395.52"><g id="textblocktransform"><svg viewBox="0 0 395.52 68.20224257315166" height="68.20224257315166" width="395.52" id="textblock"><g><svg viewBox="0 0 395.52 68.20224257315166" height="68.20224257315166" width="395.52"><g transform="matrix(1,0,0,1,0,0)"><svg width="395.52" viewBox="0.4 -38.25 223.82999999999998 38.6" height="68.20224257315166" data-palette-color="#ffffff"><path d="M35-38.05L35-38.05Q37.35-38.05 38.73-36.68 40.1-35.3 40.1-33.2L40.1-33.2Q40.1-29.4 37.4-27 34.7-24.6 30.25-22.5L30.25-22.5Q26.65-13.2 21.65 0L21.65 0 13.35 0Q11.65-23.8 11.33-27.68 11-31.55 10.63-32.25 10.25-32.95 9.2-32.95L9.2-32.95Q6.55-32.95 3.75-23.6L3.75-23.6Q1.35-24.75 0.4-25.3L0.4-25.3Q2.95-33.55 6.2-36.35L6.2-36.35Q8.4-38.25 11.45-38.25L11.45-38.25Q14.2-38.25 15.7-36.45 17.2-34.65 17.7-29.45L17.7-29.45Q17.95-26.7 18.43-18.68 18.9-10.65 19.1-8.05L19.1-8.05 19.4-8.05 27.05-29.3Q28.7-33.95 29.85-35.45L29.85-35.45Q31.75-38.05 35-38.05ZM36.7-31.75L36.7-31.75Q36.7-32.4 36.3-32.8 35.9-33.2 35.23-33.2 34.55-33.2 34.08-32.15 33.6-31.1 32-27.05L32-27.05Q36.7-29.5 36.7-31.75ZM39.1-36.83Q40.25-38 41.9-38 43.55-38 44.72-36.83 45.9-35.65 45.9-34 45.9-32.35 44.72-31.2 43.55-30.05 41.9-30.05 40.25-30.05 39.1-31.2 37.95-32.35 37.95-34 37.95-35.65 39.1-36.83ZM37.05-22.15Q37.55-23.05 38.95-23.53 40.35-24 41.72-24 43.1-24 44.15-23.65L44.15-23.65Q42.2-8.6 42.2-8.45L42.2-8.45Q41.95-7.45 41.95-6.78 41.95-6.1 42.05-5.6L42.05-5.6Q42.25-4.3 43.87-4.3 45.5-4.3 46.87-6.43 48.25-8.55 48.95-11.25L48.95-11.25Q49.3-11.05 50.05-10.05 50.8-9.05 50.95-8.55L50.95-8.55Q49.95-4.55 47.55-2.1L47.55-2.1Q45.15 0.35 41.8 0.35 38.45 0.35 36.82-1.3 35.2-2.95 35.2-5.55L35.2-5.55Q35.2-6.1 35.25-6.7L35.25-6.7 37.05-22.15ZM61.52-24.1Q65.1-24.1 67.7-21.15 70.3-18.2 70.3-14.25L70.3-14.25Q70.3-13.7 70.25-13.1L70.25-13.1Q69.7-6.55 65.85-3.13 62 0.3 55.8 0.3L55.8 0.3Q53.3 0.2 51.45-0.6 49.6-1.4 48.7-2.6L48.7-2.6Q47-4.8 47-6.53 47-8.25 47.5-12.1L47.5-12.1Q48.55-20 50.5-37.65L50.5-37.65Q51.55-38.05 53.3-38.05L53.3-38.05Q57.3-38.05 57.3-35.75L57.3-35.75 55.6-22.45Q57.95-24.1 61.52-24.1ZM53.75-6.88Q53.75-5.7 54.62-4.93 55.5-4.15 57.05-4.15L57.05-4.15Q59.6-4.15 61.25-6.5L61.25-6.5Q63.25-9.35 63.25-13.9L63.25-13.9Q63.25-16.1 62.25-17.8 61.25-19.5 59.15-19.5L59.15-19.5Q56.3-19.5 54.8-16.1L54.8-16.1 54.4-13.1Q53.75-8.05 53.75-6.88ZM81.74-11.2Q84.84-11.85 86.37-13.7 87.89-15.55 87.89-17.28 87.89-19 86.97-19.63 86.04-20.25 84.94-20.25L84.94-20.25Q82.59-20.25 80.82-17.63 79.04-15 79.04-11.38 79.04-7.75 80.77-5.98 82.49-4.2 85.04-4.2L85.04-4.2Q88.79-4.2 92.24-6.8 95.69-9.4 97.84-13.6L97.84-13.6Q98.94-12.55 99.84-11L99.84-11Q98.19-7.25 93.99-3.65L93.99-3.65Q91.89-1.9 89.02-0.8 86.14 0.3 83.09 0.3L83.09 0.3Q78.09 0.3 75.19-2.75L75.19-2.75Q72.09-6.05 72.09-11.2 72.09-16.35 75.97-20.2 79.84-24.05 85.24-24.05L85.24-24.05Q89.09-24.05 91.49-22.38 93.89-20.7 93.94-17.85L93.94-17.85Q93.94-14 90.87-11.6 87.79-9.2 82.44-8.25L82.44-8.25 81.74-11.2ZM110.59 0.3L110.59 0.3Q102.84 0.3 99.22-3.65 95.59-7.6 95.59-14.08 95.59-20.55 97.82-25.88 100.04-31.2 104.44-34.63 108.84-38.05 113.97-38.05 119.09-38.05 122.02-35.58 124.94-33.1 124.94-28.93 124.94-24.75 122.37-22 119.79-19.25 116.34-19.25 112.89-19.25 110.99-20.78 109.09-22.3 109.09-24.03 109.09-25.75 110.47-26.73 111.84-27.7 114.49-27.7L114.49-27.7Q113.84-27.05 113.84-25.98 113.84-24.9 114.49-24.1 115.14-23.3 116.49-23.3 117.84-23.3 119.19-24.73 120.54-26.15 120.54-28.5 120.54-30.85 119.12-32.25 117.69-33.65 115.09-33.65L115.09-33.65Q111.69-33.65 108.92-30.9 106.14-28.15 104.69-23.9 103.24-19.65 103.24-14.95L103.24-14.95Q103.24-10.9 104.99-7.8L104.99-7.8Q105.89-6.2 107.67-5.25 109.44-4.3 111.84-4.3L111.84-4.3Q115.94-4.3 119.74-6.93 123.54-9.55 126.14-13.7L126.14-13.7 127.84-10.65Q124.89-5.85 120.44-2.78 115.99 0.3 110.59 0.3ZM138.14-5.7L138.14-5.7 139.34-16.75Q139.34-18.1 138.64-19 137.94-19.9 136.39-19.9 134.84-19.9 133.76-18.68 132.69-17.45 132.19-15.45L132.19-15.45Q131.84-12.6 131.14-7.13 130.44-1.65 130.24 0L130.24 0 123.59 0Q127.19-30.65 127.94-37.65L127.94-37.65Q128.99-38.05 130.79-38.05L130.79-38.05Q134.69-38.05 134.69-35.75L134.69-35.75 134.69-35.45Q133.84-27.6 132.89-21.65L132.89-21.65Q135.54-24.05 138.89-24.05 142.24-24.05 144.19-22.35 146.14-20.65 146.14-18.05L146.14-18.05Q146.14-17.35 145.84-15.45L145.84-15.45Q144.69-7.95 144.69-6.65L144.69-6.65Q144.69-4.3 146.24-4.3L146.24-4.3Q147.54-4.3 149.01-6.03 150.49-7.75 151.39-11.35L151.39-11.35Q153.09-9.55 153.44-8.5L153.44-8.5Q150.84 0.2 144.24 0.2L144.24 0.2Q141.14 0.2 139.64-1.7 138.14-3.6 138.14-5.7ZM158.64-11.2Q161.74-11.85 163.26-13.7 164.79-15.55 164.79-17.28 164.79-19 163.86-19.63 162.94-20.25 161.84-20.25L161.84-20.25Q159.49-20.25 157.71-17.63 155.94-15 155.94-11.38 155.94-7.75 157.66-5.98 159.39-4.2 161.94-4.2L161.94-4.2Q165.69-4.2 169.14-6.8 172.59-9.4 174.74-13.6L174.74-13.6Q175.84-12.55 176.74-11L176.74-11Q175.09-7.25 170.89-3.65L170.89-3.65Q168.79-1.9 165.91-0.8 163.04 0.3 159.99 0.3L159.99 0.3Q154.99 0.3 152.09-2.75L152.09-2.75Q148.99-6.05 148.99-11.2 148.99-16.35 152.86-20.2 156.74-24.05 162.14-24.05L162.14-24.05Q165.99-24.05 168.39-22.38 170.79-20.7 170.84-17.85L170.84-17.85Q170.84-14 167.76-11.6 164.69-9.2 159.34-8.25L159.34-8.25 158.64-11.2ZM188.28-16.95L188.28-16.95Q188.28-20.2 185.38-20.2L185.38-20.2Q183.23-20.2 181.53-17.75L181.53-17.75Q179.73-15.1 179.73-11.55 179.73-8 181.31-6.08 182.88-4.15 185.63-4.15L185.63-4.15Q188.93-4.15 192.61-6.85 196.28-9.55 198.53-13.55L198.53-13.55Q199.53-12.8 200.48-10.8L200.48-10.8Q199.03-7.9 195.08-4.3L195.08-4.3Q193.03-2.4 189.98-1.1L189.98-1.1Q186.68 0.3 183.38 0.3L183.38 0.3Q178.93 0.3 175.86-2.75 172.78-5.8 172.78-10.7L172.78-10.7Q172.78-16.65 176.78-20.35 180.78-24.05 185.73-24.05L185.73-24.05Q189.58-24.05 191.83-22.45 194.08-20.85 194.08-18.25L194.08-18.25Q194.08-16.55 192.88-15.3L192.88-15.3Q190.68-13.1 187.53-13.1L187.53-13.1Q188.28-15.6 188.28-16.95ZM218.73-18L218.73-18Q218.73-12.8 212.53-10.05L212.53-10.05Q212.68-9.15 212.98-7.9L212.98-7.9Q213.88-4.2 215.98-4.1L215.98-4.1Q216.13-4.1 216.28-4.1L216.28-4.1Q220.28-4.1 222.23-11.15L222.23-11.15Q223.28-10.2 224.23-8.3L224.23-8.3Q223.53-5.6 222.26-3.75 220.98-1.9 219.48-1.1L219.48-1.1Q216.83 0.3 214.48 0.3L214.48 0.3Q208.98 0.3 206.78-5.85L206.78-5.85Q205.93-8.3 205.63-10.85L205.63-10.85Q208.48-11.55 210.13-13.18 211.78-14.8 211.78-16.65L211.78-16.65Q211.78-19.85 208.58-19.85L208.58-19.85Q206.83-19.85 205.58-18.53 204.33-17.2 203.93-15.35L203.93-15.35Q203.63-12.8 202.96-7.33 202.28-1.85 202.08 0L202.08 0 195.43 0Q199.03-30.65 199.78-37.65L199.78-37.65Q200.83-38.05 202.63-38.05L202.63-38.05Q206.53-38.05 206.53-35.75L206.53-35.75 206.53-35.45Q205.53-26.4 204.68-21.6L204.68-21.6Q207.43-24.15 211.58-24.15L211.58-24.15Q214.68-24.15 216.71-22.55 218.73-20.95 218.73-18Z" opacity="1" transform="matrix(1,0,0,1,0,0)" fill="#ffffff" class="wordmark-text-0" data-fill-palette-color="primary" id="text-0"></path></svg></g></svg></g></svg></g></svg></g><g transform="matrix(1,0,0,1,411.62091261769933,0)"><svg viewBox="0 0 95.06754370402687 83.8873943201251" height="83.8873943201251" width="95.06754370402687"><g><svg xmlns="http://www.w3.org/2000/svg" xmlns:xlink="http://www.w3.org/1999/xlink" version="1.1" x="0" y="0" viewBox="8.157178590784296 19.94238970541046 82.0596213873938 72.40923188796864" enable-background="new 0 0 100 100" xml:space="preserve" height="83.8873943201251" width="95.06754370402687" class="icon-icon-0" data-fill-palette-color="accent" id="icon-0"><path d="M88.721 20.993c-4.344-3.1-9.382 1.34-12.112 4.531-4.231 4.945-7.09 11.064-9.078 17.216-0.85-4.681-2.316-10.591-6.879-13.048-4.097-2.206-9.751 0.737-10.521 5.259-3.813-3.412-10.24-1.197-11.498 3.68-3.451-2.288-8.168-0.645-9.735 3.122-3.049-4.775-6.283-9.608-10.261-13.668-1.796-1.833-4.89-4.873-7.771-3.692-4.11 1.685-2.695 6.258-1.252 9.289 2.332 4.899 5.488 9.413 8.315 14.032 2.219 3.625 4.366 7.294 6.362 11.048 1.681 5.25 3.423 10.497 5.549 15.587 1.531 3.669 3.264 7.335 5.652 10.533 1.91 2.559 4.301 4.752 7.312 5.916 5.038 1.946 10.856 1.821 16.104 0.945 5.415-0.904 10.74-2.803 15.348-5.816 2.058-1.346 4.04-2.884 5.419-4.949 1.188-1.779 1.877-3.827 2.216-5.929 0.801-4.971 0.013-10.105-0.271-15.087-0.319-5.602-0.077-11.208 1.218-16.684 0.576-2.437 1.327-4.905 2.577-7.089l0.041-0.079c1.402-2.855 3.035-5.639 4.092-8.65C90.293 25.334 90.856 22.518 88.721 20.993 87.569 20.172 91.977 23.318 88.721 20.993zM56.485 31.92c2.67-0.903 4.791 1.59 5.929 3.676 1.043 1.912 1.524 3.986 1.934 6.104 0.602 3.11 1.065 6.252 1.474 9.394 0.037 2.161-2.162 3.613-4.115 3.883-2.664 0.368-4.168-2.625-5.023-4.655-0.82-2.655-1.994-6.116-2.91-8.765l-0.529-2.172C52.184 35.044 53.032 33.091 56.485 31.92 57.418 31.605 53.032 33.091 56.485 31.92zM43.708 36.596c2.66-1.17 4.296-0.512 6.3 2.724 0.64 1.811 2.214 6.305 3.417 10.039 0.667 2.128 1.509 4.268 1.158 6.542-0.183 1.186-0.679 2.484-1.692 3.205-1.522 1.084-3.374 0.035-4.596-1.004l-6.922-16.028-0.086-0.403C41.209 41.294 40.601 37.961 43.708 36.596 46.368 35.425 40.601 37.961 43.708 36.596zM33.732 40.645c2.327-0.944 3.939 0.643 4.617 1.525l6.765 15.665 0.382 1.263c0.75 2.46-2.043 3.439-4.048 3.001-2.074-0.453-3.657-2.207-4.842-3.859-2.545-3.552-4.185-7.847-5.363-12.03l-0.103-0.63C31.117 45.43 30.586 41.922 33.732 40.645 36.06 39.701 30.586 41.922 33.732 40.645zM84.099 32.552c-0.394 0.768-0.783 1.532-1.151 2.277-2.472 4.347-3.465 9.595-3.981 14.515-0.597 5.698-0.092 11.358 0.271 17.052 0.273 4.299 0.573 9.215-1.899 12.987-1.236 1.886-3.115 3.24-4.996 4.428-2.054 1.297-4.259 2.352-6.535 3.194-4.383 1.621-9.09 2.515-13.768 2.501-3.49-0.011-7.354-0.455-10.34-2.419-2.583-1.698-4.452-4.309-5.972-6.951-2.237-3.887-3.883-8.108-5.408-12.315-1.203-3.32-2.311-6.675-3.387-10.04l-0.038-0.119-0.059-0.11c-2.751-5.187-5.802-10.201-8.9-15.185-1.589-2.555-3.201-5.1-4.657-7.733-0.947-1.713-2.07-3.619-2.339-5.594-0.124-0.908 0.265-2.251 1.439-2.048 0.632 0.109 1.22 0.483 1.734 0.845 3.49 2.446 6.143 6.305 8.574 9.721 1.982 2.786 3.854 5.653 5.624 8.578 1.129 4.301 2.745 8.611 5.108 12.392 1.382 2.211 3.134 4.404 5.494 5.617 3.039 1.561 8.119 1.084 9.301-2.672 4.354 2.42 8.431-0.589 9.131-5.146 2.767 2.37 6.871 1.639 9.385-0.783 1.332-1.284 1.777-2.967 1.692-4.763l-0.004-0.114c-0.004-0.085-0.007-0.17-0.012-0.256 1.764-8.371 5.021-17.328 10.892-23.742 1.618-1.768 5.198-5.236 7.787-3.385 0.948 0.678-0.072 2.919-0.367 3.686C85.98 28.889 85.032 30.723 84.099 32.552 83.705 33.32 85.694 29.428 84.099 32.552z" fill="#877eff" data-fill-palette-color="accent"></path></svg></g></svg></g></svg></g><defs></defs></svg><rect width="395.52" height="65.48233295535846" fill="none" stroke="none" visibility="hidden"></rect></g></svg></g></svg>